HIERARCHY
ROOT Hips
{
	OFFSET 0.00000 0.00000 0.00000
	CHANNELS 6 Xposition Yposition Zposition Yrotation Zrotation Xrotation 
	JOINT Lumbar
	{
		OFFSET 0 0 0
		CHANNELS 3 Zrotation Xrotation Yrotation
		JOINT Neck
		{
			OFFSET 0.00 0.2701 0.00
			CHANNELS 3 Zrotation Xrotation Yrotation
			End Site
			{
				OFFSET 0.00 0.1379 0.00
			}
		}
		JOINT RightShoulder
		{
			OFFSET 0.0119 0.2289 0.1181
			CHANNELS 3 Zrotation Xrotation Yrotation
			JOINT RightElbow
			{
				OFFSET 0.00 -0.1475 0.00
				CHANNELS 2 Zrotation Yrotation
				JOINT RightWrist
				{
					OFFSET 0.00 -0.1605 0.00
					CHANNELS 2 Zrotation Xrotation
					End Site
					{
						OFFSET 0.0040 -0.1068 0.0006
					}
				}
			}
		}
		JOINT LeftShoulder
		{
			OFFSET 0.0119 0.2289 -0.1181
			CHANNELS 3 Zrotation Xrotation Yrotation
			JOINT LeftElbow
			{
				OFFSET 0.00 -0.1475 0.00
				CHANNELS 2 Zrotation Yrotation
				JOINT LeftWrist
				{
					OFFSET 0.00 -0.1605 0.00
					CHANNELS 2 Zrotation Xrotation
					End Site
					{
						OFFSET 0.0040 -0.1068 -0.0006
					}
				}
			}
		}
	}
	JOINT RightHip
	{
		OFFSET 0.0316 -0.0424 0.0458
		CHANNELS 3 Zrotation Xrotation Yrotation
		JOINT RightKnee
		{
			OFFSET 0.00 -0.2438 0.00
			CHANNELS 1 Zrotation
			JOINT RightAnkle
			{
				OFFSET 0.00 -0.2449 0.00
				CHANNELS 3 Zrotation Xrotation Yrotation
				End Site
				{
					OFFSET 0.1237 -0.0542 0.0051
				}
			}
		}
	}
	JOINT LeftHip
	{
		OFFSET 0.0316 -0.0424 -0.0458
		CHANNELS 3 Zrotation Xrotation Yrotation
		JOINT LeftKnee
		{
			OFFSET 0.00 -0.2438 0.00
			CHANNELS 1 Zrotation
			JOINT LeftAnkle
			{
				OFFSET 0.00 -0.2449 0.00
				CHANNELS 3 Zrotation Xrotation Yrotation
				End Site
				{
					OFFSET 0.1237 -0.0542 -0.0051
				}
			}
		}
	}
}
MOTION
Frames: 28
Frame Time: 0.02
0.00084 0.00032 -0.00089 39.56205 -32.23744 -8.92662 48.76109 1.77129 -4.53491 12.15954 -0.25361 -0.68774 7.84437 -7.07257 14.8934 25.2306 89.27136 6.79347 0.07255 10.15608 6.62852 -20.96223 46.68224 -87.32547 2.81467 -1.44389 44.44823 0.36455 -9.19862 -19.09637 -6.21764 -1.5341 -2.99491 48.05298 2.14995 4.02522 -24.87895 -6.42714 1.78854 3.12282
0.0009 0.00025 -0.00112 39.57493 -32.29103 -8.94572 48.79597 1.79623 -4.64851 11.6165 -0.19029 -0.69013 5.56302 -7.39706 12.03295 24.98184 89.14266 6.39061 0.18766 6.20441 7.40989 -19.56261 46.20785 -88.87333 3.70705 -1.55544 44.45352 0.32694 -9.38285 -19.07857 -6.21997 -1.53146 -2.99006 48.06842 2.22171 4.42767 -24.86903 -6.43798 1.76507 3.10786
0.00095 0.00018 -0.00134 39.58776 -32.34443 -8.96479 48.83084 1.82113 -4.76164 11.0742 -0.12711 -0.69251 3.28601 -7.72114 9.18016 24.73411 89.0149 5.98944 0.30243 2.26085 8.18855 -18.16391 45.73528 -90.42329 4.59995 -1.66749 44.45871 0.28944 -9.56663 -19.0608 -6.22231 -1.52879 -2.98521 48.08372 2.29329 4.82901 -24.85912 -6.44878 1.74167 3.09295
0.001 0.0001 -0.00156 39.6006 -32.39785 -8.98384 48.86563 1.846 -4.87488 10.53267 -0.06398 -0.69489 1.01122 -8.04476 6.32838 24.48616 88.88653 5.58785 0.41715 -1.67938 8.96746 -16.76801 45.26241 -91.96777 5.49025 -1.77886 44.46397 0.25194 -9.75031 -19.04305 -6.22464 -1.52615 -2.98037 48.0991 2.36484 5.23026 -24.84922 -6.45959 1.71827 3.07804
0.00105 3e-05 -0.00179 39.6135 -32.45145 -9.00291 48.9004 1.87089 -4.98863 9.99077 -0.00074 -0.69728 -1.2668 -8.36848 3.46925 24.23707 88.75746 5.18449 0.53232 -5.62602 9.74921 -15.37256 44.78758 -93.5068 6.37842 -1.88933 44.46937 0.21433 -9.93439 -19.0253 -6.22695 -1.52355 -2.97553 48.11465 2.43656 5.63252 -24.83934 -6.47042 1.69482 3.06309
0.0011 -4e-05 -0.00201 39.62618 -32.50445 -9.02198 48.93545 1.8958 -5.10043 9.44767 0.06234 -0.69966 -3.54147 -8.69325 0.62987 23.99222 88.6327 4.788 0.64631 -9.56275 10.52133 -13.96722 44.31979 -95.07916 7.28098 -2.00463 44.47412 0.17708 -10.11752 -19.00748 -6.22933 -1.52075 -2.97065 48.12943 2.50784 6.0319 -24.82935 -6.48117 1.67151 3.04827
0.00115 -0.00011 -0.00224 39.63927 -32.5586 -9.04103 48.96991 1.92066 -5.21606 8.90755 0.12566 -0.70204 -5.82059 -9.01575 -2.24561 23.73915 88.49824 4.37791 0.76225 -13.51542 11.31192 -12.58305 43.83838 -96.58478 8.15461 -2.11034 44.48017 0.13914 -10.30236 -18.98981 -6.23159 -1.51833 -2.96585 48.14573 2.57993 6.43671 -24.81959 -6.49206 1.64793 3.0332
0.00121 -0.00018 -0.00246 39.65204 -32.61169 -9.0601 49.00491 1.94556 -5.32811 8.36476 0.18876 -0.70443 -8.09521 -9.33998 -5.08874 23.49355 88.37487 3.98072 0.87691 -17.45276 12.08559 -11.17986 43.36946 -98.14819 9.05304 -2.22443 44.48502 0.10183 -10.48564 -18.97201 -6.23395 -1.51558 -2.96099 48.16064 2.65125 6.83639 -24.80962 -6.50283 1.62461 3.01836
0.00126 -0.00025 -0.00268 39.66417 -32.66349 -9.07917 49.04062 1.97052 -5.43601 7.81798 0.25164 -0.70682 -10.36732 -9.66799 -7.89 23.25748 88.25659 3.5978 0.98802 -21.37623 12.8384 -9.75024 42.91596 -99.79906 9.99022 -2.3508 44.48837 0.06528 -10.66703 -18.954 -6.23644 -1.51236 -2.95604 48.17378 2.72176 7.23047 -24.79937 -6.51346 1.60156 3.00381
0.0013 -0.00033 -0.00291 39.67922 -32.72273 -9.09819 49.0724 1.99518 -5.56847 7.29196 0.31591 -0.70917 -12.66297 -9.97931 -10.92527 22.96778 88.0836 3.1283 1.11359 -25.39436 13.71068 -8.46302 42.37418 -100.99744 10.72989 -2.41267 44.50024 0.02435 -10.85937 -18.93705 -6.23822 -1.51165 -2.95153 48.1969 2.79735 7.6588 -24.79064 -6.52491 1.5768 2.98759
0.00137 -0.00038 -0.00312 39.6886 -32.76626 -9.11734 49.11235 2.02046 -5.64868 6.7237 0.37715 -0.71162 -14.90269 -10.32252 -13.47088 22.79046 88.04221 2.84428 1.21243 -29.20253 14.33124 -6.88199 42.01838 -103.11719 11.86957 -2.60656 44.49423 -0.00733 -11.02852 -18.91797 -6.24146 -1.50576 -2.94613 48.19913 2.86194 8.01351 -24.77878 -6.53461 1.55577 2.97492
0.00156 -0.00035 -0.0033 39.67836 -32.76637 -9.13681 49.17591 2.04762 -5.58764 6.02544 0.43074 -0.71436 -17.03911 -10.78256 -14.62287 22.93104 88.22253 3.0489 1.20411 -32.51343 14.25264 -4.4349 42.18046 -108.06245 14.25531 -3.19937 44.43803 -0.01358 -11.13399 -18.89196 -6.24912 -1.48466 -2.93795 48.14215 2.89834 8.17588 -24.7576 -6.53973 1.54409 2.97166
0.00179 -0.00028 -0.00347 39.66324 -32.75078 -9.15642 49.24738 2.07538 -5.47379 5.28772 0.48108 -0.71719 -19.10913 -11.26977 -15.28923 23.18275 88.55359 3.44194 1.17361 -35.59739 13.92359 -1.70675 42.52793 -113.87495 17.01454 -3.91751 44.36413 -0.01055 -11.21606 -18.86401 -6.25816 -1.45856 -2.92894 48.06459 2.92335 8.26277 -24.73342 -6.54306 1.53627 2.97199
0.00199 -0.00023 -0.00364 39.6529 -32.74256 -9.17604 49.31453 2.10278 -5.38262 4.57682 0.53258 -0.71998 -21.17805 -11.72474 -16.21459 23.37739 88.916 3.76409 1.17745 -38.73575 13.71366 0.8575 42.78563 -119.10034 19.50684 -4.55496 44.29899 -0.01178 -11.309 -18.83765 -6.26628 -1.43537 -2.92052 47.99763 2.95223 8.37758 -24.71108 -6.54703 1.52732 2.9709
0.00222 -0.00018 -0.00382 39.63141 -32.73327 -9.19542 49.38502 2.1306 -5.29668 3.82689 0.58576 -0.72279 -23.3829 -12.26149 -16.99059 23.59989 88.88705 4.03098 1.0855 -42.08582 13.47769 3.58706 43.06691 -125.15429 22.41304 -5.29475 44.23061 -0.01279 -11.40139 -18.80826 -6.27565 -1.40937 -2.91118 47.92519 2.98647 8.51821 -24.68668 -6.55168 1.51593 2.96901
0.00241 -0.00013 -0.00398 39.63239 -32.72253 -9.21524 49.45009 2.15764 -5.18765 3.15071 0.63425 -0.72556 -25.28386 -12.63717 -17.94585 23.79079 89.67149 4.44937 1.17945 -44.93309 13.24055 6.02384 43.34314 -129.67288 24.54212 -5.84871 44.16502 -0.01208 -11.48878 -18.78477 -6.28272 -1.38815 -2.9036 47.85953 3.007 8.5884 -24.66591 -6.55453 1.51032 2.96953
0.00254 -8e-05 -0.00409 39.69319 -32.71113 -9.2369 49.50109 2.18273 -5.02544 2.67286 0.67388 -0.72828 -26.4034 -12.53692 -19.66225 23.86688 92.99836 5.31291 1.86655 -46.51473 13.02708 7.71299 43.55822 -129.87109 24.46421 -5.8796 44.1095 -0.00864 -11.57296 -18.77781 -6.28316 -1.38061 -2.90068 47.81559 2.99116 8.47202 -24.65565 -6.55246 1.52143 2.97671
0.00264 -4e-05 -0.00419 39.77743 -32.69886 -9.25885 49.54577 2.20695 -4.84243 2.27364 0.70819 -0.73096 -27.21071 -12.27816 -21.55017 23.90798 97.08484 6.31069 2.72947 -47.5845 12.82655 9.0748 43.76195 -128.47412 23.58695 -5.716 44.05778 -0.00384 -11.6519 -18.77693 -6.28121 -1.37819 -2.89964 47.77956 2.96213 8.28932 -24.64924 -6.54871 1.53791 2.98603
0.00275 1e-05 -0.0043 39.85312 -32.68734 -9.28024 49.59158 2.23132 -4.67036 1.84797 0.74287 -0.73361 -28.13501 -12.10813 -23.26096 23.96453 100.59416 7.19662 3.46076 -48.84607 12.644 10.49976 43.97224 -127.71489 23.05388 -5.62682 44.00562 0.00019 -11.73022 -18.77343 -6.28029 -1.37387 -2.89798 47.74122 2.94004 8.14394 -24.64123 -6.54598 1.5508 2.99379
0.00289 6e-05 -0.00442 39.91963 -32.67389 -9.3035 49.64534 2.2567 -4.48961 1.38077 0.78644 -0.73644 -29.16608 -11.86877 -25.36652 24.02435 105.05308 8.29573 4.40203 -50.27693 12.35613 12.29067 44.18375 -127.33455 22.60862 -5.59786 43.94738 0.00522 -11.82086 -18.76922 -6.27967 -1.3675 -2.89525 47.69674 2.91367 7.9657 -24.63239 -6.5421 1.56867 3.00415
0.00295 9e-05 -0.0045 40.01106 -32.66432 -9.32285 49.68054 2.27984 -4.3234 1.02048 0.80981 -0.73889 -29.89655 -11.73555 -26.70565 24.07077 107.75636 8.99034 4.95755 -51.2305 12.28874 13.24464 44.38677 -125.79943 21.793 -5.39959 43.90298 0.00833 -11.8843 -18.76802 -6.27782 -1.36677 -2.89525 47.66723 2.8931 7.841 -24.62632 -6.54025 1.57742 3.00956
0.0028 8e-05 -0.00449 40.164 -32.66695 -9.33209 49.66965 2.29644 -4.19629 0.92592 0.78261 -0.74024 -29.91525 -11.93793 -25.81044 24.06143 105.03956 8.44499 4.3209 -51.04361 12.87317 11.9078 44.57549 -121.2477 20.08502 -4.74625 43.89586 0.00598 -11.87946 -18.77317 -6.27328 -1.37975 -2.90199 47.67694 2.8929 7.88211 -24.62613 -6.54437 1.55944 3.00066
0.00258 4e-05 -0.00444 40.3414 -32.67342 -9.3372 49.63976 2.3109 -4.08575 0.9383 0.73455 -0.74122 -29.6346 -12.25269 -24.15274 24.04453 100.5949 7.50218 3.30453 -50.38534 13.67167 9.74963 44.75398 -115.62362 18.04159 -3.93491 43.90273 0.00153 -11.84666 -18.78123 -6.26757 -1.39833 -2.91144 47.70167 2.89885 7.97958 -24.62875 -6.55061 1.53213 2.9867
0.00239 2e-05 -0.00441 40.50885 -32.67729 -9.34372 49.61598 2.32672 -3.97214 0.9087 0.69349 -0.74243 -29.46398 -12.51223 -22.89878 24.04824 97.20168 6.80155 2.51872 -49.9099 14.34313 8.00544 44.93198 -110.63124 16.19341 -3.21859 43.90319 -0.00205 -11.82293 -18.7883 -6.26231 -1.41479 -2.91986 47.71965 2.90126 8.0503 -24.63061 -6.55592 1.50926 2.97509
0.00222 -1e-05 -0.00438 40.67276 -32.68445 -9.35236 49.60201 2.34095 -3.83973 0.85409 0.66267 -0.74338 -29.39267 -12.77997 -21.41662 23.97761 92.73649 5.8525 1.49919 -49.54939 15.14047 6.07853 45.1312 -104.98094 14.13938 -2.39853 43.90361 -0.00505 -11.81374 -18.79422 -6.25728 -1.42973 -2.92755 47.73724 2.90628 8.12287 -24.63042 -6.56102 1.48578 2.96335
0.00198 -4e-05 -0.00433 40.84883 -32.68605 -9.35543 49.56395 2.3579 -3.74972 0.8757 0.60567 -0.74479 -29.04699 -13.06416 -20.21686 24.06136 90.05209 5.31641 0.8677 -48.84376 15.72638 4.34084 45.28417 -100.45864 12.44167 -1.75829 43.9079 -0.00998 -11.76848 -18.80312 -6.25155 -1.449 -2.93733 47.75953 2.90757 8.2066 -24.63512 -6.56712 1.46121 2.95063
0.00153 -0.0001 -0.00422 41.05857 -32.66817 -9.34557 49.45722 2.38378 -3.78134 1.08357 0.48136 -0.74762 -28.02195 -13.32563 -20.06655 24.56476 92.97453 6.08777 1.45344 -47.30694 15.67652 3.33105 45.309 -99.39143 11.84043 -1.66415 43.91524 -0.01786 -11.62352 -18.81974 -6.24395 -1.47977 -2.95269 47.78758 2.89674 8.30172 -24.65268 -6.5752 1.43656 2.93644
0.00101 -0.00016 -0.00409 41.27849 -32.64517 -9.33002 49.32813 2.41229 -3.8537 1.36382 0.33148 -0.75092 -26.73142 -13.60781 -20.21088 25.2249 97.69353 7.27441 2.43158 -45.44056 15.40694 2.53993 45.28785 -99.48941 11.60778 -1.7549 43.9268 -0.02792 -11.44452 -18.83919 -6.23574 -1.51451 -2.96997 47.82048 2.88218 8.40779 -24.67505 -6.58429 1.41095 2.9214
